<?xml version="1.0" encoding="UTF-8" standalone="no"?>
<!-- Created with Inkscape (http://www.inkscape.org/) -->

<svg
   version="1.1"
   id="svg2"
   width="696.16498"
   height="359.539"
   viewBox="0 0 696.165 359.53901"
   xmlns="http://www.w3.org/2000/svg"
   xmlns:svg="http://www.w3.org/2000/svg">
  <defs
     id="defs6" />
  <g
     id="g682"
     transform="translate(-318.58359,-466.16025)">
    <g
       id="g551"
       transform="matrix(1.3333333,0,0,-1.3333333,0,1333.3333)">
      <path
         d="m 0,0 h 81.433 c 3.762,0 6.812,3.05 6.812,6.812 v 0 c 0,3.762 -3.05,6.812 -6.812,6.812 H 0 c -3.762,0 -6.812,-3.05 -6.812,-6.812 v 0 C -6.812,3.05 -3.762,0 0,0"
         style="fill:#ffffff;fill-opacity:1;fill-rule:nonzero;stroke:none"
         id="path86"
         transform="translate(432.3431,403.226)" />
      <path
         d="m 0,0 h -449.877 -10e-4 c -7.523,0 -13.623,-6.099 -13.623,-13.623 V -211.03 c 0,-7.524 6.1,-13.624 13.624,-13.624 h 102.788 c 3.762,0 6.812,3.05 6.812,6.812 v 0 c 0,3.762 -3.05,6.812 -6.812,6.812 H -449.877 V -13.623 H 0 V -211.03 h -156.669 c -3.762,0 -6.811,-3.05 -6.811,-6.812 v 0 c 0,-3.762 3.049,-6.812 6.811,-6.812 H 0 v 0 c 7.524,0 13.623,6.099 13.623,13.623 v 0.001 197.407 C 13.623,-6.099 7.524,0 0,0 Z"
         style="fill:#ffffff;fill-opacity:1;fill-rule:nonzero;stroke:none"
         id="path94"
         transform="translate(724.9387,627.8798)" />
    </g>
    <g
       id="g566"
       transform="matrix(1.3333333,0,0,-1.3333333,0,1333.3333)"
       style="fill:#f49e36;">
      <path
         d="m 0,0 v 0 c 3.762,0 6.812,3.05 6.812,6.812 v 0 c 0,3.762 -3.05,6.812 -6.812,6.812 -3.762,0 -6.812,-3.05 -6.812,-6.812 v 0 C -6.812,3.05 -3.762,0 0,0"
         style="fill:#f49e36;;fill-rule:nonzero;stroke:none"
         id="path82"
         transform="translate(405.0963,403.226)" />
      <path
         d="m 0,0 v 0 c 3.762,0 6.812,3.05 6.812,6.812 v 0 c 0,3.762 -3.05,6.812 -6.812,6.812 v 0 c -3.762,0 -6.812,-3.05 -6.812,-6.812 v 0 C -6.812,3.05 -3.762,0 0,0"
         style="fill:#f49e36;;fill-rule:nonzero;stroke:none"
         id="path90"
         transform="translate(541.0233,403.226)" />
      <path
         d="m 0,0 v 0 c 0,3.762 -3.05,6.812 -6.812,6.812 -3.762,0 -6.811,-3.05 -6.811,-6.812 v 0 c 0,-3.762 3.049,-6.812 6.811,-6.812 C -3.05,-6.812 0,-3.762 0,0"
         style="fill:#f49e36;;fill-rule:nonzero;stroke:none"
         id="path42"
         transform="translate(357.4146,491.7779)" />
      <path
         d="m 0,0 v 0 c 3.762,0 6.812,3.05 6.812,6.812 v 0 c 0,3.762 -3.05,6.812 -6.812,6.812 -3.762,0 -6.812,-3.05 -6.812,-6.812 v 0 C -6.812,3.05 -3.762,0 0,0"
         style="fill:#f49e36;;fill-rule:nonzero;stroke:none"
         id="path46"
         transform="translate(296.416,484.9662)" />
      <path
         d="m 0,0 v 0 c 3.762,0 6.812,3.05 6.812,6.812 v 0 c 0,3.762 -3.05,6.812 -6.812,6.812 -3.762,0 -6.812,-3.05 -6.812,-6.812 v 0 C -6.812,3.05 -3.762,0 0,0"
         style="fill:#f49e36;;fill-rule:nonzero;stroke:none"
         id="path50"
         transform="translate(432.343,512.2128)" />
      <path
         d="m 0,0 v 0 c 0,3.762 -3.05,6.812 -6.812,6.812 -3.762,0 -6.811,-3.05 -6.811,-6.812 v 0 c 0,-3.762 3.049,-6.812 6.811,-6.812 C -3.05,-6.812 0,-3.762 0,0"
         style="fill:#f49e36;;fill-rule:nonzero;stroke:none"
         id="path54"
         transform="translate(411.908,519.0245)" />
      <path
         d="m 0,0 v 0 c 3.762,0 6.812,3.05 6.812,6.812 v 0 c 0,3.762 -3.05,6.812 -6.812,6.812 -3.762,0 -6.812,-3.05 -6.812,-6.812 v 0 C -6.812,3.05 -3.762,0 0,0"
         style="fill:#f49e36;;fill-rule:nonzero;stroke:none"
         id="path58"
         transform="translate(513.7766,512.2128)" />
      <path
         d="m 0,0 v 0 c -3.762,0 -6.812,-3.05 -6.812,-6.812 v 0 c 0,-3.762 3.05,-6.812 6.812,-6.812 3.762,0 6.812,3.05 6.812,6.812 v 0 C 6.812,-3.05 3.762,0 0,0"
         style="fill:#f49e36;;fill-rule:nonzero;stroke:none"
         id="path62"
         transform="translate(486.5299,525.8364)" />
      <path
         d="m 0,0 v 0 c 3.762,0 6.812,3.05 6.812,6.812 v 0 c 0,3.762 -3.05,6.812 -6.812,6.812 -3.762,0 -6.812,-3.05 -6.812,-6.812 v 0 C -6.812,3.05 -3.762,0 0,0"
         style="fill:#f49e36;;fill-rule:nonzero;stroke:none"
         id="path66"
         transform="translate(322.7432,484.9662)" />
      <path
         d="m 0,0 v 0 c -3.762,0 -6.812,-3.05 -6.812,-6.812 v 0 c 0,-3.762 3.05,-6.812 6.812,-6.812 3.762,0 6.812,3.05 6.812,6.812 v 0 C 6.812,-3.05 3.762,0 0,0"
         style="fill:#f49e36;;fill-rule:nonzero;stroke:none"
         id="path70"
         transform="translate(296.416,600.6332)" />
      <path
         d="m 0,0 v 0 c -3.762,0 -6.812,-3.05 -6.812,-6.812 v 0 c 0,-3.762 3.05,-6.812 6.812,-6.812 3.762,0 6.812,3.05 6.812,6.812 v 0 C 6.812,-3.05 3.762,0 0,0"
         style="fill:#f49e36;;fill-rule:nonzero;stroke:none"
         id="path74"
         transform="translate(322.7432,600.6332)" />
    </g>
    <g
       id="g577"
       transform="matrix(1.3333333,0,0,-1.3333333,0,1333.3333)">
      <path
         d="m 0,0 v 0 c -3.762,0 -6.812,-3.05 -6.812,-6.812 v -54.493 c 0,-3.762 3.05,-6.812 6.812,-6.812 v 0 c 3.762,0 6.812,3.05 6.812,6.812 V -6.812 C 6.812,-3.05 3.762,0 0,0"
         style="fill:#ffffff;fill-opacity:1;fill-rule:nonzero;stroke:none"
         id="path22"
         transform="translate(704.5036,600.6332)" />
      <path
         d="m 0,0 c -3.762,0 -6.812,-3.05 -6.812,-6.812 v -47.682 c 0,-7.523 6.1,-13.623 13.623,-13.623 h 0.001 68.117 v 0 c 7.524,0 13.623,6.1 13.623,13.623 v 13.624 6.811 c 0,3.763 -3.05,6.812 -6.812,6.812 H 37.058 c -1.656,0 -3,1.344 -3,3 v 7.623 c 0,1.657 1.344,3 3,3 H 81.74 c 3.762,0 6.812,3.05 6.812,6.812 C 88.552,-3.05 85.502,0 81.74,0 H 34.058 V 0 C 26.534,0 20.435,-6.099 20.435,-13.623 v -0.001 -13.623 -6.812 c 0,-3.761 3.05,-6.811 6.812,-6.811 h 44.682 c 1.656,0 3,-1.343 3,-3 v -7.624 c 0,-1.657 -1.344,-3 -3,-3 H 9.812 c -1.657,0 -3,1.343 -3,3 V -6.812 C 6.812,-3.05 3.762,0 0,0 Z"
         style="fill:#ffffff;fill-opacity:1;fill-rule:nonzero;stroke:none"
         id="path26"
         transform="translate(595.5167,600.6332)" />
      <path
         d="m 0,0 v 0 c 0,-3.762 3.05,-6.812 6.811,-6.812 h 20.436 v 0 c 7.524,0 13.623,6.1 13.623,13.624 v 13.623 0 c 0,7.524 -6.099,13.624 -13.623,13.624 H 6.812 C 3.05,34.059 0,31.009 0,27.247 0,23.485 3.05,20.435 6.812,20.435 h 17.435 c 1.657,0 3,-1.343 3,-3 V 9.812 c 0,-1.657 -1.343,-3 -3,-3 H 6.811 C 3.05,6.812 0,3.762 0,0"
         style="fill:#ffffff;fill-opacity:1;fill-rule:nonzero;stroke:none"
         id="path30"
         transform="translate(534.2117,539.3281)" />
      <path
         d="m 0,0 v 0 c 0,-3.762 -3.05,-6.812 -6.812,-6.812 -3.762,0 -6.811,3.05 -6.811,6.812 v 0 c 0,3.762 3.049,6.812 6.811,6.812 C -3.05,6.812 0,3.762 0,0 m 156.362,6.812 v 0 c 3.762,0 6.812,-3.05 6.812,-6.812 v 0 c 0,-3.762 -3.05,-6.812 -6.812,-6.812 -3.762,0 -6.812,3.05 -6.812,6.812 v 0 c 0,3.762 3.05,6.812 6.812,6.812 m -183.609,0 V -6.812 c 0,-7.524 6.1,-13.623 13.623,-13.623 H -13.623 0 h 13.623 95.057 13.624 13.623 13.623 13.624 13.623 13.623 0.001 c 7.524,0 13.623,6.099 13.623,13.623 v 20.436 c 0,3.762 -3.05,6.811 -6.812,6.811 -3.762,0 -6.812,-3.049 -6.812,-6.811 V -3.812 c 0,-1.657 -1.343,-3 -3,-3 h -7.623 c -1.657,0 -3,1.343 -3,3 v 10.624 0 c 0,7.524 -6.099,13.623 -13.623,13.623 H 149.55 c -7.524,0 -13.623,-6.099 -13.623,-13.623 v 0 -10.624 c 0,-1.657 -1.343,-3 -3,-3 h -7.623 c -1.657,0 -3,1.343 -3,3 v 17.436 c 0,3.762 -3.05,6.811 -6.812,6.811 -3.762,0 -6.812,-3.049 -6.812,-6.811 V -3.812 c 0,-1.657 -1.343,-3 -3,-3 H 16.623 c -1.657,0 -3,1.343 -3,3 v 10.624 0 C 13.623,14.336 7.524,20.435 0,20.435 v 0 h -13.623 -0.001 c -7.523,0 -13.623,-6.099 -13.623,-13.623 z"
         style="fill:#ffffff;fill-opacity:1;fill-rule:nonzero;stroke:none"
         id="path34"
         transform="translate(316.5445,552.9514)" />
      <path
         d="m 0,0 v 0 c 0,-3.762 -3.05,-6.812 -6.812,-6.812 -3.762,0 -6.811,3.05 -6.811,6.812 v 0 c 0,3.762 3.049,6.812 6.811,6.812 C -3.05,6.812 0,3.762 0,0 M 150.47,-6.812 V 40.87 c 0,3.762 -3.05,6.812 -6.812,6.812 -3.762,0 -6.811,-3.05 -6.811,-6.812 V -3.812 c 0,-1.657 -1.344,-3 -3,-3 h -7.624 c -1.657,0 -3,1.343 -3,3 V 6.812 c 0,7.523 -6.099,13.623 -13.623,13.623 v 0 H 61.918 c -3.762,0 -6.812,-3.05 -6.812,-6.812 v 0 c 0,-3.762 3.05,-6.811 6.812,-6.811 H 106.6 c 1.657,0 3,-1.343 3,-3 v -7.624 c 0,-1.657 -1.343,-3 -3,-3 H 55.106 44.483 c -1.657,0 -3,1.343 -3,3 v 17.435 c 0,3.762 -3.05,6.812 -6.812,6.812 -3.762,0 -6.811,-3.05 -6.811,-6.812 V -3.812 c 0,-1.657 -1.343,-3 -3,-3 h -8.237 c -1.657,0 -3,1.343 -3,3 V 6.812 C 13.623,14.335 7.524,20.435 0,20.435 v 0 h -13.623 -0.001 c -7.523,0 -13.623,-6.1 -13.623,-13.623 v -13.624 0 c 0,-7.524 6.1,-13.623 13.623,-13.623 H -13.623 0 13.623 27.86 41.483 55.106 109.6 h 13.623 13.624 c 7.524,0 13.623,6.099 13.623,13.623"
         style="fill:#ffffff;fill-opacity:1;fill-rule:nonzero;stroke:none"
         id="path38"
         transform="translate(315.9315,450.908)" />
      <path
         d="m 0,0 h 27.247 c 3.762,0 6.811,-3.05 6.811,-6.812 v 0 c 0,-3.762 -3.049,-6.812 -6.811,-6.812 H 0 c -3.762,0 -6.812,3.05 -6.812,6.812 v 0 C -6.812,-3.05 -3.762,0 0,0 m -74.929,-27.247 h 13.624 13.623 13.624 13.623 13.623 40.87 c 7.524,0 13.624,6.099 13.624,13.623 v 0 V 0 c 0,7.524 -6.1,13.623 -13.623,13.623 H 34.058 -6.812 V 27.247 H 40.87 c 3.762,0 6.812,3.049 6.812,6.811 v 0 c 0,3.762 -3.05,6.812 -6.812,6.812 H -6.812 v 0 c -7.524,0 -13.623,-6.099 -13.623,-13.623 v 0 V 13.623 0 -10.624 c 0,-1.656 -1.343,-3 -3,-3 h -7.623 c -1.657,0 -3,1.344 -3,3 v 44.682 c 0,3.762 -3.05,6.812 -6.812,6.812 v 0 c -3.762,0 -6.812,-3.05 -6.812,-6.812 v -44.682 c 0,-1.656 -1.343,-3 -3,-3 h -10.623 -13.624 z"
         style="fill:#ffffff;fill-opacity:1;fill-rule:nonzero;stroke:none"
         id="path78"
         transform="translate(663.6336,457.7197)" />
      <path
         d="M 0,0 V 0 C 3.762,0 6.812,3.05 6.812,6.812 V 34.058 C 6.812,37.82 3.762,40.87 0,40.87 v 0 c -3.762,0 -6.812,-3.05 -6.812,-6.812 V 6.812 C -6.812,3.05 -3.762,0 0,0"
         style="fill:#ffffff;fill-opacity:1;fill-rule:nonzero;stroke:none"
         id="path98"
         transform="translate(595.5167,457.7197)" />
      <path
         d="m 0,0 c 7.524,0 13.623,6.099 13.623,13.623 v 0.001 20.434 c 0,3.762 -3.049,6.812 -6.811,6.812 C 3.05,40.87 0,37.82 0,34.058 V 16.624 c 0,-1.657 -1.343,-3 -3,-3 h -34.87 c -1.657,0 -3,1.343 -3,3 v 17.434 c 0,3.762 -3.05,6.812 -6.812,6.812 -3.762,0 -6.811,-3.05 -6.811,-6.812 V 13.624 13.623 C -54.493,6.099 -48.394,0 -40.87,0 v 0 z"
         style="fill:#ffffff;fill-opacity:1;fill-rule:nonzero;stroke:none"
         id="path102"
         transform="translate(561.4584,430.4726)" />
      <path
         d="m 0,0 v 0 c 3.762,0 6.812,3.05 6.812,6.812 v 54.494 c 0,3.762 -3.05,6.811 -6.812,6.811 -3.762,0 -6.812,-3.049 -6.812,-6.811 V 6.812 C -6.812,3.05 -3.762,0 0,0"
         style="fill:#ffffff;fill-opacity:1;fill-rule:nonzero;stroke:none"
         id="path106"
         transform="translate(486.5299,430.4726)" />
    </g>
  </g>
</svg>
