<svg width="636" height="106" viewBox="0 0 636 106" fill="none" xmlns="http://www.w3.org/2000/svg">
<path d="M56.3613 17.7425C56.3613 7.94358 64.3049 0 74.1038 0H431.573C441.372 0 449.315 7.94358 449.315 17.7425C449.315 27.5414 457.259 35.485 467.058 35.485H511.847C521.52 35.485 529.362 43.3267 529.362 53C529.362 62.6733 537.203 70.515 546.877 70.515H582.404C592.203 70.515 600.146 78.4586 600.146 88.2575C600.146 98.0564 592.203 106 582.404 106H224.935C215.136 106 207.192 98.0564 207.192 88.2575C207.192 78.4586 199.249 70.515 189.45 70.515H153.923C144.249 70.515 136.408 62.6733 136.408 53C136.408 43.3267 128.566 35.485 118.892 35.485H74.1038C64.3049 35.485 56.3613 27.5414 56.3613 17.7425Z" fill="#F49E36" fill-opacity="0.6"/>
<path d="M564.423 17.7425C564.423 7.94358 572.367 0 582.166 0H617.465C627.264 0 635.208 7.94358 635.208 17.7425C635.208 27.5414 627.264 35.485 617.465 35.485H582.166C572.367 35.485 564.423 27.5414 564.423 17.7425Z" fill="#F49E36" fill-opacity="0.6"/>
<path d="M125.161 88.2575C125.161 78.4586 117.218 70.515 107.419 70.515H18.5345C8.73558 70.515 0.791992 78.4586 0.791992 88.2575C0.791992 98.0564 8.73557 106 18.5345 106H107.419C117.218 106 125.161 98.0564 125.161 88.2575Z" fill="#F49E36" fill-opacity="0.6"/>
</svg>
