<svg width="47" height="47" viewBox="0 0 47 47" fill="none" xmlns="http://www.w3.org/2000/svg">
<path d="M23.0204 46.0408C35.7342 46.0408 46.0408 35.7342 46.0408 23.0204C46.0408 10.3066 35.7342 0 23.0204 0C10.3066 0 0 10.3066 0 23.0204C0 35.7342 10.3066 46.0408 23.0204 46.0408Z" fill="#25D366"/>
<path fill-rule="evenodd" clip-rule="evenodd" d="M23.7791 35.8279H23.7735C21.4825 35.8271 19.2314 35.2523 17.232 34.1617L9.97546 36.0653L11.9174 28.972C10.7195 26.896 10.0892 24.5412 10.0902 22.1286C10.0932 14.5812 16.234 8.4408 23.779 8.4408C27.4409 8.44238 30.8778 9.86793 33.4622 12.4554C36.0466 15.0427 37.4692 18.4819 37.4677 22.1394C37.4647 29.6851 31.3264 35.8248 23.7791 35.8279ZM17.5682 31.6836L17.9837 31.9302C19.7305 32.9668 21.7329 33.5153 23.7745 33.5161H23.7791C30.0501 33.5161 35.154 28.4121 35.1565 22.1386C35.1576 19.0985 33.9753 16.24 31.8273 14.0894C29.6792 11.9388 26.8225 10.7539 23.7836 10.7528C17.5079 10.7528 12.4039 15.8563 12.4014 22.1294C12.4005 24.2792 13.002 26.3728 14.1409 28.1843L14.4115 28.6147L13.2621 32.8132L17.5682 31.6836ZM30.207 25.0865C30.4455 25.2018 30.6066 25.2797 30.6754 25.3945C30.7609 25.5371 30.7609 26.2219 30.476 27.021C30.1909 27.8199 28.8244 28.5491 28.1672 28.6473C27.578 28.7354 26.8323 28.7721 26.013 28.5117C25.5162 28.3541 24.8791 28.1437 24.0631 27.7912C20.8566 26.4067 18.6897 23.2989 18.2801 22.7115C18.2514 22.6704 18.2314 22.6416 18.2202 22.6267L18.2174 22.623C18.0364 22.3815 16.8236 20.7633 16.8236 19.0885C16.8236 17.513 17.5975 16.6872 17.9537 16.3071C17.9781 16.281 18.0006 16.2571 18.0207 16.2351C18.3342 15.8927 18.7047 15.8071 18.9328 15.8071C19.1607 15.8071 19.389 15.8092 19.5883 15.8192C19.6129 15.8204 19.6385 15.8203 19.6649 15.8201C19.8642 15.819 20.1127 15.8175 20.3578 16.4063C20.4522 16.6329 20.5902 16.9689 20.7357 17.3232C21.03 18.0397 21.3552 18.8314 21.4124 18.946C21.4979 19.1172 21.5549 19.3168 21.4409 19.5452C21.4238 19.5794 21.408 19.6118 21.3928 19.6426C21.3072 19.8175 21.2442 19.9461 21.0989 20.1158C21.0417 20.1825 20.9827 20.2544 20.9236 20.3263C20.8059 20.4696 20.6883 20.6129 20.5858 20.715C20.4146 20.8856 20.2364 21.0706 20.4359 21.413C20.6354 21.7555 21.3218 22.8755 22.3386 23.7824C23.4316 24.7574 24.3816 25.1694 24.8631 25.3783C24.9572 25.4191 25.0333 25.4521 25.0892 25.4801C25.4311 25.6513 25.6306 25.6227 25.8302 25.3945C26.0297 25.1662 26.6852 24.3957 26.9132 24.0533C27.1411 23.7111 27.3693 23.7681 27.6827 23.8822C27.9963 23.9964 29.6779 24.8238 30.0199 24.9949C30.0867 25.0284 30.1491 25.0585 30.207 25.0865Z" fill="#FDFDFD"/>
</svg>
