<svg width="422" height="32" viewBox="0 0 422 32" fill="none" xmlns="http://www.w3.org/2000/svg">
<path d="M30.0387 16C30.0387 23.4431 23.9685 29.5 16.4521 29.5C8.93567 29.5 2.86548 23.4431 2.86548 16C2.86548 8.55686 8.93567 2.5 16.4521 2.5C23.9685 2.5 30.0387 8.55686 30.0387 16Z" stroke="#4E5052" stroke-width="5"/>
<ellipse cx="16.4515" cy="16" rx="6.03248" ry="6" fill="#4E5052"/>
<path d="M47.6201 16H374.38" stroke="#4E5052" stroke-width="5" stroke-linecap="round"/>
<path d="M419.134 16C419.134 23.4431 413.064 29.5 405.548 29.5C398.031 29.5 391.961 23.4431 391.961 16C391.961 8.55686 398.031 2.5 405.548 2.5C413.064 2.5 419.134 8.55686 419.134 16Z" stroke="#4E5052" stroke-width="5"/>
<ellipse cx="405.548" cy="16" rx="6.03248" ry="6" fill="#4E5052"/>
</svg>
